<svg xmlns="http://www.w3.org/2000/svg" viewBox="0 0 30 30"><defs><style>      .cls-1 {        fill: #f07e40;      }    </style></defs><g><g id="Layer_1"><path class="cls-1" d="M28.8,1.1c0,0-.4-.2-.6,0l-11.9,12.8c-.2.2-.4.2-.6,0l-6.9-3.8c-.3-.2-.5,0-.6.1-.1.2-.2.4,0,.6.2.2,7.9,10.7,7.9,10.7.2.2.5.4.8.4.3,0,.6-.2.7-.4L28.9,1.8c.2-.4,0-.6-.1-.7Z"></path><path class="cls-1" d="M28.1,10.5c-.1,0-.3,0-.4,0-.2.1-.3.4-.3.6.5,1.6.7,3.2.6,4.9-.5,6.6-6,11.8-12.6,12-3.7,0-7.3-1.4-9.8-4.1-2.5-2.7-3.8-6.4-3.5-10.1C2.6,7.5,7.8,2.5,14,2c2.3-.2,4.6.3,6.7,1.3.2.1.5,0,.7-.2,0-.1,0-.3,0-.4,0-.1-.1-.2-.2-.3-1.9-.9-4-1.4-6.2-1.4-3.9,0-7.5,1.6-10.2,4.4C2.1,8.3.8,12,1,15.9c.4,7,6.1,12.6,13.1,13.1,3.9.2,7.6-1.1,10.5-3.8,2.8-2.7,4.4-6.3,4.4-10.2s-.2-2.9-.7-4.2c0-.2-.2-.3-.3-.3Z"></path></g></g></svg>